<svg xmlns="http://www.w3.org/2000/svg" width="445" height="420" viewBox="0 0 445 420" aria-labelledby="login" role="presentation"><title id="login">login icon</title><g><g><g clip-path="url(#clip0)"><path d="M166.538 63.7152H41.5347V147.535H166.538V63.7152Z" fill="white"></path><path d="M166.638 147.635C166.638 147.635 166.638 147.135 166.638 146.135C166.638 145.135 166.638 143.634 166.638 141.734C166.638 137.833 166.638 132.131 166.638 124.83C166.638 110.226 166.538 89.3213 166.538 63.8152L166.738 64.0153H41.6345L41.8342 63.8152C41.8342 93.7223 41.8342 122.129 41.8342 147.635L41.6345 147.435L131.693 147.535L157.452 147.635H164.341H166.139H166.738H164.441H157.652L131.992 147.735L41.8342 147.835H41.6345V147.635C41.6345 122.029 41.6345 93.6223 41.6345 63.8152V63.6152H41.8342H166.738H166.937V63.8152C166.937 89.4213 166.838 110.426 166.838 124.93C166.838 132.231 166.838 137.933 166.838 141.734C166.838 143.634 166.838 145.135 166.838 146.135C166.838 147.135 166.638 147.635 166.638 147.635Z" fill="#E0E0E0"></path><path d="M41.5347 71.2169C41.5347 71.1169 69.4907 71.0169 104.036 71.0169C138.582 71.0169 166.538 71.1169 166.538 71.2169C166.538 71.317 138.582 71.417 104.036 71.417C69.4907 71.417 41.5347 71.317 41.5347 71.2169Z" fill="#E0E0E0"></path><g opacity="0.3"><path opacity="0.3" d="M46.427 67.4161C46.427 68.0162 46.0276 68.4163 45.4285 68.4163C44.8295 68.4163 44.4301 68.0162 44.4301 67.4161C44.4301 66.8159 44.8295 66.4158 45.4285 66.4158C46.0276 66.4158 46.427 66.9159 46.427 67.4161Z" fill="#E0E0E0"></path></g><g opacity="0.3"><path opacity="0.3" d="M48.923 68.4163C49.4745 68.4163 49.9215 67.9685 49.9215 67.4161C49.9215 66.8636 49.4745 66.4158 48.923 66.4158C48.3716 66.4158 47.9246 66.8636 47.9246 67.4161C47.9246 67.9685 48.3716 68.4163 48.923 68.4163Z" fill="#E0E0E0"></path></g><g opacity="0.3"><path opacity="0.3" d="M53.3161 67.4161C53.3161 68.0162 52.9168 68.4163 52.3177 68.4163C51.7186 68.4163 51.3193 68.0162 51.3193 67.4161C51.3193 66.8159 51.7186 66.4158 52.3177 66.4158C52.9168 66.4158 53.3161 66.9159 53.3161 67.4161Z" fill="#E0E0E0"></path></g><path d="M85.6652 80.019H52.3177V113.427H85.6652V80.019Z" fill="#E0E0E0"></path><path d="M149.365 89.4213C149.365 89.5213 136.385 89.6214 120.311 89.6214C104.236 89.6214 91.2565 89.5213 91.2565 89.4213C91.2565 89.3213 104.236 89.2213 120.311 89.2213C136.385 89.2213 149.365 89.3213 149.365 89.4213Z" fill="#E0E0E0"></path><path d="M149.365 95.6228C149.365 95.7228 136.385 95.8228 120.311 95.8228C104.236 95.8228 91.2565 95.7228 91.2565 95.6228C91.2565 95.5227 104.236 95.4227 120.311 95.4227C136.385 95.4227 149.365 95.5227 149.365 95.6228Z" fill="#E0E0E0"></path><path d="M149.365 101.824C149.365 101.924 136.385 102.024 120.311 102.024C104.236 102.024 91.2565 101.924 91.2565 101.824C91.2565 101.724 104.236 101.624 120.311 101.624C136.385 101.624 149.365 101.724 149.365 101.824Z" fill="#E0E0E0"></path><path d="M125.702 108.026C125.303 108.126 124.804 108.126 124.304 108.126L120.61 108.226C117.515 108.226 113.222 108.326 108.529 108.326C103.837 108.326 99.5434 108.326 96.3485 108.226L92.6543 108.126C92.1551 108.126 91.7557 108.126 91.3563 108.026C91.7557 107.926 92.2549 107.926 92.6543 107.926L96.3485 107.826C99.4436 107.726 103.737 107.726 108.529 107.726C113.322 107.726 117.515 107.726 120.61 107.826L124.304 107.926C124.804 107.926 125.203 108.026 125.702 108.026Z" fill="#E0E0E0"></path><path d="M70.0898 124.63H54.4144V140.333H70.0898V124.63Z" fill="#E0E0E0"></path><path d="M98.4452 124.63H82.7698V140.333H98.4452V124.63Z" fill="#E0E0E0"></path><path d="M126.9 124.63H111.225V140.333H126.9V124.63Z" fill="#E0E0E0"></path><path d="M155.356 124.63H139.68V140.333H155.356V124.63Z" fill="#E0E0E0"></path><path d="M261.688 0.400101H144.473V48.1115H261.688V0.400101Z" fill="white"></path><path d="M261.688 48.0114C261.688 48.0114 261.688 47.7114 261.688 47.2112C261.688 46.7111 261.688 45.8109 261.688 44.7106C261.688 42.5101 261.688 39.3094 261.688 35.2084C261.688 27.0064 261.688 15.1036 261.589 0.300071L261.688 0.400095L144.573 0.600143L144.672 0.400095V48.0114L144.473 47.8114L228.54 47.9114L252.902 48.0114H259.392H252.902H228.54H144.373H144.173V47.8114C144.173 32.9078 144.173 16.804 144.173 0.100024V0H144.373H261.589H261.688V0.300071C261.688 15.1036 261.688 27.0064 261.589 35.2084C261.589 39.3094 261.589 42.5101 261.589 44.7106C261.589 45.8109 261.589 46.6111 261.589 47.1112C261.589 47.6113 261.688 48.0114 261.688 48.0114Z" fill="#E0E0E0"></path><path d="M144.672 6.80163C144.672 6.7016 170.831 6.60158 203.18 6.60158C235.53 6.60158 261.688 6.7016 261.688 6.80163C261.688 6.90165 235.43 7.00167 203.18 7.00167C170.931 7.00167 144.672 6.90165 144.672 6.80163Z" fill="#E0E0E0"></path><g opacity="0.3"><path opacity="0.3" d="M149.465 3.90093C149.465 4.40105 149.066 4.70112 148.566 4.70112C148.067 4.70112 147.668 4.30103 147.668 3.90093C147.668 3.40081 148.067 3.00072 148.566 3.00072C149.066 3.10074 149.465 3.50084 149.465 3.90093Z" fill="#EBEBEB"></path></g><g opacity="0.3"><path opacity="0.3" d="M152.46 3.90093C152.46 4.40105 152.061 4.70112 151.562 4.70112C151.062 4.70112 150.663 4.30103 150.663 3.90093C150.663 3.40081 151.062 3.00072 151.562 3.00072C152.061 3.10074 152.46 3.50084 152.46 3.90093Z" fill="#EBEBEB"></path></g><g opacity="0.3"><path opacity="0.3" d="M154.457 4.80115C154.953 4.80115 155.356 4.39811 155.356 3.90093C155.356 3.40376 154.953 3.00072 154.457 3.00072C153.961 3.00072 153.558 3.40376 153.558 3.90093C153.558 4.39811 153.961 4.80115 154.457 4.80115Z" fill="#EBEBEB"></path></g><path d="M182.812 14.5034H154.457V42.8102H182.812V14.5034Z" fill="#E0E0E0"></path><path d="M253.601 22.1053C253.601 22.2053 239.024 22.3053 221.052 22.3053C203.081 22.3053 188.504 22.2053 188.504 22.1053C188.504 22.0052 203.081 21.9052 221.052 21.9052C239.024 21.9052 253.601 22.0052 253.601 22.1053Z" fill="#E0E0E0"></path><path d="M253.601 27.9066C253.601 28.0067 239.024 28.1067 221.052 28.1067C203.081 28.1067 188.504 28.0067 188.504 27.9066C188.504 27.8066 203.081 27.7066 221.052 27.7066C239.024 27.7066 253.601 27.8066 253.601 27.9066Z" fill="#E0E0E0"></path><path d="M230.338 33.708C230.238 33.708 230.038 33.708 229.938 33.708H228.74L224.247 33.808L209.47 33.9081L194.694 33.808L190.201 33.708H189.003C188.903 33.708 188.703 33.708 188.603 33.708C188.703 33.708 188.903 33.708 189.003 33.708H190.201L194.694 33.608H209.47H224.247L228.74 33.708H229.938C230.138 33.708 230.238 33.708 230.338 33.708Z" fill="#E0E0E0"></path><path d="M445 392.5C445 392.667 354.761 393 243.455 393C132.148 393 42 392.833 42 392.5C42 392.167 132.239 392 243.545 392C354.852 392 445 392.333 445 392.5Z" fill="#263238"></path><path d="M397.375 90.0215H257.495V204.249H397.375V90.0215Z" fill="#EBEBEB"></path><path d="M387.49 97.9233H243.816V215.151H387.49V97.9233Z" fill="white"></path><path d="M387.49 215.151C387.49 215.151 387.49 214.351 387.49 212.951C387.49 211.55 387.49 209.45 387.49 206.649C387.49 201.148 387.49 193.146 387.49 182.844C387.49 162.339 387.391 133.132 387.391 97.8233L387.59 98.0233H243.916L244.216 97.7233C244.216 140.133 244.216 180.143 244.216 214.951L244.016 214.751L347.853 214.851L377.207 214.951H384.994H386.991H387.69H385.094H377.306L347.953 215.051L244.016 215.151H243.816V215.051C243.816 180.243 243.816 140.233 243.816 97.8233V97.5232H244.116H387.79H387.99V97.7233C387.99 133.132 387.89 162.439 387.89 182.944C387.89 193.146 387.89 201.148 387.79 206.649C387.79 209.35 387.79 211.45 387.79 212.851C387.79 214.251 387.49 215.151 387.49 215.151Z" fill="#263238"></path><path d="M387.49 107.726C387.49 107.826 355.441 108.026 315.903 108.026C276.365 108.026 244.316 107.926 244.316 107.726C244.316 107.526 276.365 107.426 315.903 107.426C355.441 107.426 387.49 107.526 387.49 107.726Z" fill="#263238"></path><path d="M248.609 102.624C248.609 103.125 248.21 103.525 247.71 103.525C247.211 103.525 246.812 103.125 246.812 102.624C246.812 102.124 247.211 101.724 247.71 101.724C248.21 101.624 248.609 102.124 248.609 102.624Z" fill="#263238"></path><path d="M251.205 103.525C251.701 103.525 252.103 103.122 252.103 102.624C252.103 102.127 251.701 101.724 251.205 101.724C250.709 101.724 250.306 102.127 250.306 102.624C250.306 103.122 250.709 103.525 251.205 103.525Z" fill="#263238"></path><path d="M255.698 102.624C255.698 103.125 255.298 103.525 254.799 103.525C254.3 103.525 253.901 103.125 253.901 102.624C253.901 102.124 254.3 101.724 254.799 101.724C255.298 101.624 255.698 102.124 255.698 102.624Z" fill="#263238"></path><path d="M253.501 216.151C253.401 216.151 253.202 191.846 253.202 161.839C253.202 131.831 253.301 107.526 253.501 107.526C253.701 107.526 253.801 131.831 253.801 161.839C253.701 191.846 253.601 216.151 253.501 216.151Z" fill="#E0E0E0"></path><path d="M112.124 2.10051H53.017V44.3106H112.124V2.10051Z" fill="var(--q-color-primary)"></path><path d="M112.623 8.40201C112.623 8.50204 99.2439 8.70209 82.7698 8.70209C66.2957 8.70209 52.9167 8.50204 52.9167 8.40201C52.9167 8.30199 66.2957 8.10194 82.7698 8.10194C99.2439 8.10194 112.623 8.20197 112.623 8.40201Z" fill="white"></path><path d="M57.8091 5.30127C57.9089 5.70137 57.6094 6.20149 57.1102 6.20149C56.6109 6.20149 56.3114 6.00144 56.2116 5.50132C56.1117 5.10122 56.4113 4.6011 56.9105 4.6011H57.0103C57.4097 4.6011 57.8091 4.90118 57.8091 5.30127Z" fill="white"></path><path d="M60.8044 5.30128C60.8044 5.70137 60.405 6.00145 60.0056 6.00145C59.6062 6.00145 59.3067 5.60135 59.4066 5.20126C59.4066 4.80116 59.8059 4.50109 60.2053 4.60111C60.5048 4.60111 60.8044 5.00121 60.8044 5.30128Z" fill="white"></path><path d="M62.8012 6.00144C63.2423 6.00144 63.5999 5.68796 63.5999 5.30127C63.5999 4.91458 63.2423 4.6011 62.8012 4.6011C62.3601 4.6011 62.0024 4.91458 62.0024 5.30127C62.0024 5.68796 62.3601 6.00144 62.8012 6.00144Z" fill="white"></path><path d="M428.226 163.639H374.711V201.848H428.226V163.639Z" fill="var(--q-color-primary)"></path><path d="M428.526 169.34C428.526 169.44 416.445 169.54 401.568 169.54C386.692 169.54 374.611 169.44 374.611 169.34C374.611 169.24 386.692 169.14 401.568 169.14C416.445 169.14 428.526 169.24 428.526 169.34Z" fill="white"></path><path d="M379.004 166.54C378.904 166.94 378.604 167.24 378.205 167.14C377.905 167.04 377.706 166.84 377.606 166.54C377.706 166.14 378.005 165.839 378.405 165.94C378.704 166.04 379.004 166.24 379.004 166.54Z" fill="white"></path><path d="M381.7 166.54C381.6 166.94 381.3 167.24 380.901 167.14C380.601 167.04 380.402 166.84 380.302 166.54C380.402 166.14 380.701 165.839 381.101 165.94C381.4 166.04 381.6 166.24 381.7 166.54Z" fill="white"></path><path d="M384.296 166.54C384.395 166.94 384.096 167.34 383.696 167.34C383.297 167.44 382.898 167.14 382.898 166.74C382.798 166.34 383.097 165.94 383.497 165.94H383.597C383.896 165.839 384.196 166.14 384.296 166.54Z" fill="white"></path><path d="M120.51 219.352L146.569 307.473C147.768 311.374 151.362 314.075 155.356 314.075L261.189 314.375C266.581 314.375 270.974 309.974 270.974 304.573C270.974 304.372 270.974 304.172 270.974 304.072C270.674 298.871 266.381 294.77 261.189 294.77H220.753L188.304 204.349H131.593C125.203 204.349 119.911 209.55 119.911 216.051C120.111 217.152 120.211 218.252 120.51 219.352Z" fill="#455A64"></path><path d="M210.07 302.072C210.07 302.272 199.287 302.472 186.007 302.472C172.728 302.472 161.945 302.272 161.945 302.072C161.945 301.872 172.728 301.672 186.007 301.672C199.287 301.672 210.07 301.872 210.07 302.072Z" fill="#263238"></path><path d="M128.298 207.149C128.498 207.049 135.687 228.154 144.373 254.361C153.059 280.567 159.948 301.672 159.749 301.772C159.549 301.872 152.36 280.767 143.674 254.561C134.988 228.354 128.098 207.249 128.298 207.149Z" fill="#263238"></path><path d="M205.676 392.493L199.286 392.393V314.175H205.676V392.493Z" fill="#455A64"></path><path d="M172.429 392.193H232.534L205.277 382.691H198.887L172.429 392.193Z" fill="#455A64"></path><path d="M183.511 153.837C183.511 153.837 156.055 154.037 152.66 183.044L152.161 204.349L175.823 204.149L183.511 153.837Z" fill="var(--q-color-primary)"></path><path d="M229.14 232.155C228.94 232.155 229.04 220.352 229.339 205.849C229.639 191.346 230.138 179.543 230.338 179.543C230.537 179.543 230.438 191.346 230.138 205.849C229.838 220.352 229.339 232.155 229.14 232.155Z" fill="#263238"></path><path d="M229.539 200.348L245.913 232.155L258.693 207.449L235.33 165.039C231.037 160.638 225.845 157.237 220.054 155.137C216.959 154.037 214.662 153.437 211.467 153.337L210.169 153.437L229.539 200.348Z" fill="var(--q-color-primary)"></path><path d="M183.012 112.427L187.305 162.239L212.166 160.238C212.266 157.337 212.066 146.035 212.066 146.035C212.066 146.035 222.45 144.434 222.55 134.132C222.65 129.131 221.851 118.728 221.152 109.326C220.353 98.9236 211.367 91.1217 200.984 91.6218C190.4 92.222 182.413 101.324 183.012 111.927C183.012 112.127 183.012 112.227 183.012 112.427Z" fill="#EB996E"></path><path d="M212.166 145.835C207.374 145.935 202.681 144.534 198.687 142.034C198.687 142.034 201.882 149.536 212.166 148.535V145.835Z" fill="#D1734A"></path><path d="M217.158 116.528C217.158 117.328 216.559 118.028 215.761 118.028C214.962 118.128 214.263 117.528 214.263 116.728C214.263 115.928 214.862 115.227 215.661 115.227C216.459 115.127 217.158 115.728 217.158 116.528Z" fill="#263238"></path><path d="M218.956 114.427C218.756 114.627 217.658 113.827 216.06 113.827C214.463 113.827 213.264 114.627 213.165 114.427C212.965 114.227 213.264 114.027 213.764 113.627C214.463 113.127 215.261 112.927 216.06 112.927C216.859 112.927 217.658 113.227 218.356 113.627C218.956 114.027 219.055 114.327 218.956 114.427Z" fill="#263238"></path><path d="M201.882 116.528C201.882 117.328 201.283 118.028 200.485 118.028C199.686 118.128 198.987 117.528 198.987 116.728C198.987 115.928 199.586 115.227 200.385 115.227C201.183 115.127 201.882 115.728 201.882 116.528Z" fill="#263238"></path><path d="M203.38 114.727C203.18 114.927 202.082 114.127 200.485 114.127C198.887 114.127 197.689 114.927 197.589 114.727C197.489 114.527 197.689 114.327 198.188 113.927C198.887 113.427 199.686 113.227 200.485 113.227C201.283 113.227 202.082 113.527 202.781 113.927C203.28 114.327 203.48 114.627 203.38 114.727Z" fill="#263238"></path><path d="M209.171 126.53C209.97 126.23 210.868 126.13 211.767 126.03C212.166 126.03 212.566 125.93 212.665 125.63C212.665 125.23 212.566 124.83 212.366 124.43C211.967 123.429 211.567 122.429 211.168 121.329C209.47 116.928 208.272 113.327 208.472 113.227C208.672 113.127 210.169 116.728 211.767 121.129C212.166 122.229 212.566 123.229 212.865 124.23C213.165 124.73 213.165 125.33 213.065 125.83C212.965 126.13 212.665 126.33 212.366 126.43C212.166 126.53 211.867 126.53 211.667 126.53C210.868 126.63 209.97 126.63 209.171 126.53Z" fill="#263238"></path><path d="M204.478 127.63C204.778 127.63 204.778 129.331 206.176 130.631C207.573 131.931 209.47 131.631 209.47 131.931C209.47 132.231 209.071 132.231 208.272 132.231C207.274 132.231 206.276 131.931 205.477 131.231C204.678 130.631 204.179 129.731 204.079 128.731C204.179 128.131 204.379 127.63 204.478 127.63Z" fill="#263238"></path><path d="M203.779 108.526C203.58 108.926 201.982 108.726 200.185 109.026C198.288 109.226 196.79 109.726 196.591 109.326C196.491 109.126 196.691 108.726 197.389 108.326C198.987 107.326 201.084 107.025 202.881 107.726C203.48 107.926 203.879 108.326 203.779 108.526Z" fill="#263238"></path><path d="M218.456 109.826C218.157 110.226 217.059 109.826 215.761 109.826C214.463 109.826 213.364 110.026 213.065 109.726C212.965 109.526 213.165 109.226 213.664 108.826C214.962 108.026 216.759 108.026 217.957 108.926C218.356 109.326 218.556 109.626 218.456 109.826Z" fill="#263238"></path><path d="M194.195 101.024C192.497 102.324 191.399 104.225 191.199 106.325V106.525C190.8 109.526 190.9 112.527 190.4 115.528C190.001 118.528 188.903 121.529 186.806 123.529C185.908 124.33 184.31 124.93 183.611 123.93C183.312 123.529 183.212 123.029 183.212 122.529C182.613 115.427 180.716 109.026 180.716 101.624C180.716 99.6237 181.614 97.7233 183.312 96.523C184.909 95.4227 186.806 94.2225 188.503 95.0226C190.201 95.8228 192.497 99.1236 193.795 100.424" fill="#263238"></path><path d="M186.507 117.128C186.307 117.028 179.418 115.027 179.617 122.129C179.817 129.231 186.906 127.53 186.906 127.33C186.906 127.13 186.507 117.128 186.507 117.128Z" fill="#EB996E"></path><path d="M184.709 124.63C184.709 124.63 184.61 124.73 184.41 124.83C184.11 124.93 183.811 125.03 183.511 124.83C182.613 124.23 182.014 123.229 182.014 122.129C182.014 121.529 182.114 120.929 182.313 120.329C182.413 119.829 182.812 119.528 183.212 119.328C183.511 119.228 183.811 119.328 183.911 119.628C184.011 119.829 184.011 119.929 184.011 119.929C184.011 119.929 184.11 119.829 184.11 119.528C184.11 119.328 183.911 119.228 183.811 119.128C183.611 119.028 183.411 118.928 183.112 118.928C182.513 119.028 182.014 119.528 181.814 120.029C181.514 120.629 181.415 121.329 181.415 122.029C181.514 123.429 182.313 124.73 183.312 125.03C183.711 125.13 184.11 125.03 184.41 124.83C184.709 124.83 184.709 124.63 184.709 124.63Z" fill="#D1734A"></path><path d="M188.304 96.1229C186.606 93.3222 191.299 89.2213 194.794 88.121C198.288 87.0207 202.881 88.7211 206.375 89.9214C208.572 90.6216 210.768 91.6218 213.065 91.6218C214.562 91.4218 216.16 91.0217 217.558 90.5216C218.956 89.9214 220.553 89.6214 222.051 89.6214C223.648 89.6214 225.046 90.5216 225.745 92.0219C226.344 93.4223 225.545 95.4227 223.948 95.6228C225.645 94.7226 227.742 95.3227 228.64 97.0231C229.539 98.7235 228.94 100.824 227.243 101.724C226.544 102.124 225.645 102.224 224.846 102.024C225.845 101.224 227.342 102.524 227.243 103.825C226.943 105.125 226.044 106.125 224.846 106.525C221.851 107.826 218.456 107.426 215.361 106.425C212.266 105.425 209.47 103.825 206.375 102.724C203.28 101.624 198.288 99.6237 195.193 100.724C192.996 101.524 191.399 104.225 190.101 103.625C188.903 103.025 188.104 101.824 187.904 100.424C187.705 99.1236 187.805 97.7233 188.004 96.423" fill="#263238"></path><path d="M224.846 95.3227C224.746 95.3227 224.447 95.8228 223.748 96.623C222.65 97.8233 221.352 98.6235 219.854 99.1236C217.658 99.9238 215.261 99.8238 213.065 98.8236C210.669 97.7233 208.572 95.5228 206.176 93.5223C203.979 91.4218 201.184 90.1215 198.188 89.7214C195.692 89.4213 193.196 90.3215 191.399 92.0219C190.301 93.2222 189.702 94.9226 189.801 96.623C189.801 97.0231 189.901 97.5232 190.101 97.9233C190.201 98.2234 190.301 98.3234 190.301 98.3234C190.201 97.7233 190.101 97.2232 190.001 96.623C190.001 95.0226 190.6 93.5223 191.698 92.422C193.396 90.8216 195.792 90.0215 198.088 90.3215C200.884 90.8216 203.58 92.0219 205.676 94.0224C207.973 96.0229 210.169 98.2234 212.665 99.3237C216.559 101.024 221.052 99.9238 223.848 96.623C224.147 96.323 224.347 95.9229 224.547 95.5228C224.746 95.4227 224.846 95.3227 224.846 95.3227Z" fill="#455A64"></path><path d="M184.709 116.828C184.709 116.828 185.009 116.628 185.308 116.028C185.608 115.227 185.808 114.327 185.708 113.427C185.508 111.126 183.511 108.726 183.312 105.525C183.112 104.025 183.411 102.624 184.11 101.324C184.709 100.324 185.608 99.5237 186.706 99.0236C187.405 98.7235 188.304 98.6235 189.102 98.7235C189.702 98.8235 190.001 98.9236 190.001 98.9236C189.801 98.7235 189.502 98.5235 189.202 98.5235C188.304 98.3234 187.405 98.3234 186.606 98.6235C185.408 99.0236 184.31 99.9238 183.611 101.024C182.812 102.424 182.513 104.025 182.713 105.625C182.912 107.226 183.312 108.726 184.11 110.126C184.709 111.227 185.109 112.327 185.308 113.527C185.308 114.627 185.209 115.828 184.709 116.828Z" fill="#455A64"></path><path d="M234.93 310.774C234.93 310.774 240.721 305.173 241.32 300.872C241.919 296.571 234.331 228.154 234.331 228.154L230.438 171.541C230.438 172.541 230.537 164.439 229.339 163.939C225.845 162.439 218.556 159.738 218.556 159.738L214.363 155.537C214.363 155.537 221.851 191.446 223.249 201.248L234.93 310.774Z" fill="var(--q-color-primary)"></path><path d="M183.611 151.636L176.522 156.337L161.845 211.15L160.248 236.956L158.75 253.36C158.75 253.36 150.863 293.87 143.874 318.576C143.874 318.576 151.661 333.279 158.051 335.38L160.747 336.98L170.232 267.564L178.319 256.561C179.118 255.461 179.817 254.461 180.516 253.26C182.513 249.96 187.106 242.558 190.7 236.856C195.492 229.355 201.683 212.151 199.786 204.849C197.889 197.747 183.611 151.636 183.611 151.636Z" fill="var(--q-color-primary)"></path><path d="M183.611 151.636L190.001 192.546C189.801 197.747 189.003 202.948 187.405 207.95L176.023 244.758C175.125 247.359 173.727 250.96 171.93 255.161C166.638 267.064 163.643 269.764 164.841 271.865C168.235 277.566 197.29 267.464 197.29 267.464L229.838 262.763C231.336 262.563 232.434 261.162 232.235 259.662L227.442 209.65C225.845 206.149 225.146 199.147 224.447 196.647L214.463 155.537L212.366 155.237L207.873 158.338L205.577 158.538L185.908 149.035L183.611 151.636Z" fill="#F6F6F6"></path><path d="M209.071 161.839H204.678L203.28 167.94L207.174 172.641L211.068 172.241L212.366 167.84L211.268 165.439L209.071 161.839Z" fill="var(--q-color-primary)"></path><path d="M184.31 158.238C184.709 158.438 185.109 158.638 185.408 158.938L188.304 160.938C190.8 162.639 194.294 164.939 198.288 167.24C199.786 168.14 201.283 168.94 202.581 169.64L202.182 169.84C202.981 166.54 203.779 163.739 204.279 161.739C204.578 160.838 204.778 160.038 204.978 159.438C205.077 159.138 205.177 158.838 205.277 158.638C205.277 158.938 205.177 159.238 205.177 159.538C205.077 160.138 204.878 160.938 204.678 161.939C204.179 163.939 203.58 166.84 202.681 170.141L202.581 170.441L202.282 170.341C200.884 169.64 199.486 168.84 197.989 167.94C194.594 166.04 191.299 163.839 188.104 161.538C186.906 160.638 185.908 159.938 185.308 159.338C184.909 158.838 184.61 158.638 184.31 158.238Z" fill="#263238"></path><path d="M217.059 165.639C215.661 166.74 214.163 167.74 212.665 168.64L212.466 168.74L212.366 168.54L211.068 165.94C210.07 163.939 209.171 162.039 208.472 160.738C208.073 160.038 207.773 159.238 207.573 158.538C208.073 159.138 208.472 159.838 208.871 160.638C209.57 161.939 210.569 163.739 211.567 165.839L212.865 168.54L212.566 168.44C213.963 167.24 215.461 166.34 217.059 165.639Z" fill="#263238"></path><path d="M210.569 164.639C210.269 164.939 209.97 165.139 209.67 165.339C209.171 165.739 208.372 166.34 207.474 166.84C206.575 167.34 205.776 167.94 205.277 168.34C204.978 168.54 204.678 168.74 204.279 168.94C204.578 168.64 204.878 168.44 205.177 168.24C205.776 167.84 206.475 167.34 207.374 166.74L209.57 165.239C209.97 165.039 210.269 164.839 210.569 164.639Z" fill="#263238"></path><path d="M207.673 166.74C206.974 166.14 206.276 165.539 205.676 164.939C205.077 164.339 204.478 163.639 203.879 162.939C204.578 163.539 205.177 164.139 205.776 164.739C206.475 165.339 207.074 166.04 207.673 166.74Z" fill="#263238"></path><path d="M219.055 258.762L224.347 245.659L210.968 172.241L207.074 172.641C207.074 172.641 207.573 248.959 207.474 249.659L219.055 258.762Z" fill="var(--q-color-primary)"></path><path d="M219.854 208.25C219.854 208.25 232.834 209.15 235.13 212.651C237.427 216.151 241.021 225.854 239.723 225.954C238.924 225.954 238.026 225.754 237.427 225.254L233.832 218.952C233.832 218.952 234.431 225.054 232.235 225.154C230.038 225.254 219.555 227.354 219.555 227.354L219.854 208.25Z" fill="#EB996E"></path><path d="M152.161 204.349C152.161 212.05 152.161 219.752 152.161 227.354C152.56 234.356 158.551 239.757 165.54 239.357C166.239 239.357 166.937 239.257 167.536 239.057L219.854 228.254L219.754 206.749L174.625 215.451L174.026 192.646C166.738 196.647 159.449 200.548 152.161 204.349Z" fill="var(--q-color-primary)"></path><path d="M264.284 368.688L274.169 395.994L288.247 415.299C289.245 416.599 288.846 418.5 287.548 419.5L287.448 419.6C286.649 420.1 285.651 420.2 284.752 419.8C279.061 417.399 258.294 408.697 257.695 406.697C256.996 404.296 243.617 374.989 243.617 374.989L264.284 368.688Z" fill="var(--q-color-primary)"></path><g opacity="0.6"><path opacity="0.6" d="M287.448 419.5L256.996 404.796L257.495 405.897C257.894 406.897 258.593 407.697 259.492 408.197C261.988 409.598 268.977 413.098 284.652 419.7C285.451 420.2 286.549 420.1 287.448 419.5Z" fill="white"></path></g><g opacity="0.6"><path opacity="0.6" d="M259.092 393.894C259.991 394.094 260.49 394.994 260.39 395.894C260.191 396.794 259.292 397.395 258.394 397.195C257.495 396.995 256.896 395.994 256.996 395.094C257.295 394.194 258.294 393.694 259.192 393.994" fill="white"></path></g><path d="M276.565 410.098C276.865 408.997 277.464 407.997 278.162 407.097C279.46 405.697 281.058 405.497 281.058 405.297C281.058 405.096 280.659 405.197 279.96 405.297C278.162 405.797 276.865 407.197 276.565 408.997C276.465 409.698 276.565 410.098 276.565 410.098Z" fill="#263238"></path><path d="M279.96 412.998C280.159 413.098 280.658 411.898 281.857 410.898C282.655 410.398 283.454 409.898 284.353 409.497C284.353 409.297 282.855 409.297 281.457 410.398C280.059 411.498 279.76 412.998 279.96 412.998Z" fill="#263238"></path><path d="M271.273 406.897C271.473 406.997 272.272 405.096 274.069 403.496C275.866 401.896 277.763 401.195 277.663 400.995C277.563 400.795 275.467 401.195 273.57 402.996C271.673 404.796 271.074 406.897 271.273 406.897Z" fill="#263238"></path><path d="M267.579 398.795C267.679 398.895 268.977 397.695 270.874 396.894C272.771 396.094 274.468 395.894 274.468 395.794C274.468 395.694 272.671 395.494 270.574 396.394C268.478 397.295 267.479 398.695 267.579 398.795Z" fill="#263238"></path><path d="M264.484 390.893C264.584 390.993 265.782 389.493 267.879 388.793C269.975 388.092 271.772 388.493 271.772 388.292C271.772 388.092 271.373 387.992 270.574 387.892C268.578 387.592 266.481 388.292 265.083 389.793C264.584 390.393 264.384 390.893 264.484 390.893Z" fill="#263238"></path><path d="M267.18 387.292C267.08 386.892 266.98 386.592 266.78 386.292C266.281 385.392 265.682 384.592 264.883 383.891C264.384 383.391 263.685 382.991 262.986 382.891C262.487 382.891 261.988 383.191 261.788 383.591C261.589 383.991 261.589 384.492 261.788 384.992C262.587 386.892 264.684 387.792 266.68 387.292C268.577 386.792 269.975 385.192 270.175 383.191C270.275 382.691 270.075 382.191 269.776 381.891C269.376 381.591 268.877 381.491 268.378 381.791C267.779 382.191 267.28 382.791 266.98 383.391C266.481 384.291 266.181 385.192 265.982 386.192C265.882 386.592 265.882 386.892 265.982 387.292C266.281 385.992 266.78 384.792 267.479 383.591C267.779 382.991 268.178 382.591 268.777 382.191C268.977 382.091 269.276 382.091 269.576 382.291C269.776 382.591 269.875 382.891 269.776 383.191C269.476 384.892 268.278 386.292 266.68 386.692C264.983 387.092 263.286 386.292 262.587 384.792C262.387 384.492 262.387 384.091 262.487 383.791C262.587 383.491 262.886 383.391 263.086 383.391C263.685 383.491 264.284 383.791 264.684 384.191C265.682 385.192 266.581 386.192 267.18 387.292Z" fill="#263238"></path><path d="M306.019 361.486L305.12 383.691C305.12 383.691 327.285 391.993 327.585 396.094L284.652 395.994L284.552 361.386L306.019 361.486Z" fill="var(--q-color-primary)"></path><g opacity="0.6"><path opacity="0.6" d="M291.841 381.791C290.942 382.091 290.443 382.891 290.643 383.791C290.843 384.692 291.741 385.192 292.64 384.992C293.538 384.692 294.137 383.791 293.938 382.891C293.638 381.991 292.64 381.591 291.741 381.891" fill="white"></path></g><g opacity="0.6"><path opacity="0.6" d="M284.652 395.994V392.493L325.987 393.894C325.987 393.894 327.884 394.694 327.685 396.094L284.652 395.994Z" fill="white"></path></g><path d="M305.819 383.491C305.819 383.691 304.821 383.791 303.722 384.492C302.624 385.192 302.125 386.092 301.925 385.992C301.725 385.892 302.025 384.692 303.323 383.891C304.621 383.091 305.919 383.291 305.819 383.491Z" fill="#263238"></path><path d="M310.412 385.392C310.412 385.592 309.513 385.992 308.814 386.892C308.115 387.792 307.916 388.693 307.716 388.693C307.516 388.693 307.416 387.492 308.315 386.392C309.214 385.292 310.412 385.192 310.412 385.392Z" fill="#263238"></path><path d="M312.908 390.793C312.708 390.793 312.409 389.793 313.008 388.693C313.607 387.592 314.505 387.092 314.605 387.292C314.705 387.492 314.106 388.092 313.607 388.993C313.107 389.893 313.107 390.693 312.908 390.793Z" fill="#263238"></path><path d="M305.519 378.39C305.42 378.59 304.521 378.29 303.323 378.39C302.125 378.49 301.226 378.89 301.126 378.69C301.026 378.49 301.925 377.79 303.323 377.69C304.721 377.59 305.619 378.19 305.519 378.39Z" fill="#263238"></path><g opacity="0.3"><path opacity="0.3" d="M305.819 365.887L305.719 369.888L284.552 369.588V366.087L305.819 365.887Z" fill="black"></path></g><path d="M305.619 373.889C304.92 374.089 304.122 374.089 303.423 373.889C302.624 373.789 301.925 373.489 301.226 373.189C300.827 372.989 300.427 372.789 300.028 372.489C299.828 372.389 299.529 372.189 299.429 371.989C299.129 371.688 299.129 371.188 299.329 370.888C299.529 370.588 299.928 370.388 300.228 370.388C300.527 370.388 300.727 370.388 301.026 370.488C301.526 370.588 301.925 370.788 302.324 370.988C303.023 371.288 303.722 371.789 304.321 372.289C305.32 373.189 305.619 373.989 305.619 374.089C305.619 374.189 305.02 373.489 304.022 372.689C303.423 372.289 302.824 371.889 302.125 371.588C301.725 371.388 301.326 371.288 300.927 371.188C300.427 371.088 300.028 371.088 299.928 371.288C299.828 371.488 299.928 371.388 299.928 371.488C300.028 371.588 300.228 371.789 300.427 371.889C300.827 372.089 301.126 372.389 301.526 372.489C302.225 372.789 302.923 373.089 303.622 373.289C304.221 373.489 304.92 373.689 305.619 373.889Z" fill="#263238"></path><path d="M305.32 374.189C304.92 373.589 304.721 372.789 304.721 372.089C304.721 371.288 304.821 370.488 305.02 369.688C305.12 369.288 305.32 368.788 305.519 368.388C305.719 367.788 306.318 367.387 306.917 367.287C307.317 367.287 307.616 367.487 307.816 367.888C307.916 368.188 308.016 368.388 308.016 368.688C308.115 369.188 308.115 369.688 308.016 370.188C307.916 370.988 307.616 371.789 307.117 372.389C306.318 373.489 305.42 373.789 305.42 373.689C305.42 373.589 306.119 373.189 306.718 372.089C307.117 371.488 307.317 370.788 307.416 370.088C307.516 369.688 307.516 369.288 307.416 368.888C307.317 368.388 307.217 368.088 307.017 368.088C306.817 368.088 306.418 368.388 306.218 368.788C306.019 369.188 305.819 369.588 305.719 369.988C305.519 370.688 305.32 371.388 305.32 372.089C305.22 373.389 305.42 374.189 305.32 374.189Z" fill="#263238"></path><path d="M284.652 255.261C259.292 257.861 225.645 261.362 225.645 261.362L230.238 302.772C230.238 302.772 279.66 289.669 279.361 290.769C279.061 291.869 281.657 378.89 281.657 378.89H311.41L312.009 280.367C312.209 266.663 301.326 255.461 287.648 255.261C286.549 255.061 285.551 255.161 284.652 255.261Z" fill="#263238"></path><path d="M164.841 271.965V284.768C164.841 293.47 174.725 302.772 183.511 302.772H190.301C195.592 302.772 203.979 298.871 208.272 295.77L210.868 293.87L241.919 390.093C241.919 390.093 277.364 383.691 277.364 382.591C277.364 381.491 253.302 303.772 242.219 267.664C237.726 252.96 221.951 244.358 207.374 249.359C206.875 249.559 206.375 249.759 205.876 249.959C189.901 256.361 164.841 271.965 164.841 271.965Z" fill="#263238"></path><path d="M277.164 382.591C277.064 382.491 277.064 382.391 277.064 382.291C276.964 381.991 276.864 381.691 276.665 381.291C276.365 380.391 275.866 379.09 275.267 377.29C274.069 373.789 272.471 368.788 270.475 362.486C266.481 349.983 261.189 332.579 255.398 313.375C252.503 303.772 249.807 294.57 247.311 286.268C246.113 282.067 244.915 278.166 243.816 274.465C243.217 272.565 242.718 270.865 242.219 269.064C241.72 267.364 241.221 265.763 240.622 264.163C239.523 261.462 237.826 259.062 235.629 257.061C234.032 255.561 232.235 254.161 230.338 252.96C228.84 251.96 227.642 251.16 226.743 250.66L225.845 250.06C225.745 249.96 225.645 249.96 225.545 249.86C225.645 249.86 225.745 249.96 225.845 250.06L226.843 250.56C227.742 251.06 228.94 251.76 230.438 252.76C232.335 253.96 234.132 255.261 235.829 256.761C238.125 258.762 239.823 261.162 241.021 263.963C241.62 265.563 242.219 267.164 242.718 268.864C243.217 270.564 243.816 272.365 244.316 274.265L247.91 286.068C250.406 294.37 253.202 303.572 256.097 313.175C261.888 332.379 267.08 349.683 270.874 362.386L275.467 377.29L276.765 381.291C276.865 381.691 276.964 382.091 277.064 382.291C277.164 382.491 277.264 382.591 277.164 382.591Z" fill="#455A64"></path><path d="M284.652 278.266C284.852 278.366 283.155 280.967 281.757 284.368C280.359 287.769 279.76 290.769 279.46 290.769C279.161 290.769 279.56 287.668 281.058 284.068C282.555 280.467 284.552 278.166 284.652 278.266Z" fill="#455A64"></path><path d="M290.443 282.267C290.543 282.467 287.947 283.568 285.351 285.668C282.755 287.769 280.958 289.969 280.758 289.869C280.559 289.769 282.056 287.268 284.852 285.068C287.648 282.867 290.343 282.067 290.443 282.267Z" fill="#455A64"></path><path d="M242.019 390.093C241.82 390.193 233.433 364.387 223.349 332.579C213.265 300.772 205.177 274.865 205.377 274.865C205.577 274.865 213.963 300.572 224.048 332.379C234.132 364.187 242.219 389.993 242.019 390.093Z" fill="#455A64"></path><path d="M203.979 239.957L305.519 240.957L324.39 187.345L250.606 187.845L233.433 236.056L203.979 236.456V239.957Z" fill="#455A64"></path><path d="M280.958 218.752C278.662 218.452 277.164 216.352 277.464 214.051C277.763 211.75 279.86 210.25 282.156 210.55C284.453 210.85 285.95 212.951 285.651 215.251C285.251 217.552 283.155 219.052 280.958 218.752Z" fill="white"></path><path d="M92.8539 325.478C96.4482 323.777 100.542 323.277 104.536 324.077C106.632 324.477 108.829 325.077 110.326 326.678C111.824 328.278 112.024 331.079 110.426 332.479C109.328 333.179 108.03 333.479 106.732 333.379C103.637 333.379 100.242 332.779 97.7462 334.68C96.3484 335.78 95.35 337.48 93.7525 338.08C92.0552 338.481 90.258 337.68 89.3594 336.08C88.5607 334.58 88.361 332.779 88.8602 331.079C89.2596 328.678 90.6574 326.578 92.8539 325.478Z" fill="var(--q-color-primary)"></path><path d="M84.6668 309.674C86.8634 312.774 91.0568 311.774 93.0536 309.874C95.0505 307.973 95.8492 305.273 96.5481 302.572C98.2455 296.571 100.043 290.269 98.7447 284.168C98.4452 282.267 97.6464 280.567 96.3485 279.166C95.0505 277.766 93.1535 277.066 91.2565 277.466C89.1598 278.066 87.762 280.167 86.8634 282.067C84.0678 287.969 82.5701 294.37 82.5701 300.872C82.5701 303.972 82.9695 307.173 84.6668 309.674Z" fill="var(--q-color-primary)"></path><path d="M78.6762 314.175C80.9726 311.174 81.5717 307.273 80.4734 303.772C79.2753 300.272 77.1786 297.171 74.2832 294.77C71.0882 291.87 67.394 289.669 63.3004 288.269C61.7029 287.669 60.0056 287.368 58.3083 287.468C56.6109 287.568 55.0135 288.469 54.1149 289.969C52.9168 292.17 54.1149 294.87 55.313 297.071C57.4097 300.972 59.9058 304.673 62.6015 308.173C64.7981 310.974 67.2941 313.775 70.589 314.975C73.8838 316.175 77.3783 316.075 79.0756 313.775" fill="var(--q-color-primary)"></path><path d="M84.567 356.685C84.6668 356.185 84.7667 355.785 84.7667 355.285C84.8665 354.284 84.9664 352.984 85.166 351.384C85.3657 349.483 85.6653 347.583 86.0646 345.682C86.5638 343.382 87.2627 341.181 88.1613 338.981C89.0599 336.78 90.1582 334.78 91.556 332.979C92.6543 331.479 94.1519 330.179 95.8492 329.378C96.9475 328.778 98.2455 328.378 99.4436 328.278C99.9428 328.278 100.342 328.178 100.841 328.078C100.342 328.078 99.8429 328.078 99.4436 328.078C98.1456 328.178 96.8477 328.478 95.6496 329.078C93.8524 329.879 92.3547 331.179 91.1566 332.679C89.659 334.58 88.5607 336.58 87.6621 338.881C86.7635 341.081 86.1645 343.382 85.6653 345.682C85.2659 347.583 85.0662 349.483 84.8665 351.384C84.7667 352.984 84.6668 354.384 84.6668 355.285C84.4671 355.685 84.4671 356.185 84.567 356.685Z" fill="#263238"></path><path d="M84.7666 353.684C84.7666 353.484 84.7666 353.284 84.7666 353.084C84.7666 352.584 84.7666 351.984 84.7666 351.184C84.7666 349.583 84.7666 347.183 84.8665 344.282C84.9663 338.481 85.4655 332.179 86.464 323.377C87.3626 315.075 88.6605 305.373 89.9585 299.071C90.258 297.671 90.4577 296.371 90.7572 295.27C91.0568 294.17 91.2564 293.17 91.4561 292.37C91.6558 291.569 91.7557 290.969 91.8555 290.569C91.9553 290.369 91.9553 290.169 91.9553 289.969C91.8555 290.169 91.7557 290.369 91.7557 290.569C91.556 291.069 91.4561 291.669 91.2564 292.37C91.0568 293.07 90.7572 294.17 90.4577 295.27C90.1582 296.371 89.8586 297.671 89.5591 299.071C87.9616 306.473 86.7635 313.975 85.9648 321.577C85.0662 330.479 84.567 338.481 84.567 344.382C84.567 347.283 84.567 349.683 84.6668 351.284C84.6668 352.084 84.7666 352.684 84.7666 353.184C84.7666 353.284 84.7666 353.484 84.7666 353.684Z" fill="#263238"></path><path d="M84.8665 338.181C84.9664 337.48 84.9664 336.88 84.8665 336.18C84.7667 334.38 84.567 332.579 84.2675 330.879C83.8681 328.278 83.269 325.678 82.5701 323.177C81.7714 320.076 80.6731 316.975 79.3752 313.975C77.1786 308.473 73.8838 303.472 69.8901 299.171C69.1912 298.471 68.3924 297.771 67.6935 297.071C67.394 296.771 66.9946 296.471 66.6951 296.271L65.7965 295.67C65.2973 295.27 64.6983 294.87 64.199 294.57C66.0961 296.071 67.8932 297.671 69.5905 299.371C73.4844 303.772 76.5796 308.674 78.8759 314.175C80.1739 317.076 81.2722 320.176 82.1708 323.277C82.9695 326.178 83.5686 328.778 83.9679 330.979C84.3673 333.179 84.567 334.98 84.7667 336.28C84.567 336.88 84.6668 337.48 84.8665 338.181Z" fill="#263238"></path><path d="M69.7902 365.587L71.3877 386.892H98.7447L100.342 365.587H69.7902Z" fill="#263238"></path><path d="M103.637 357.185H67.1943V365.587H103.637V357.185Z" fill="#263238"></path><path d="M67.1943 386.092V388.492H68.8916H102.938V386.092H67.1943Z" fill="#455A64"></path><path d="M70.5889 392.593L68.8916 388.492H101.64L99.7431 392.593H70.5889Z" fill="#455A64"></path><path d="M99.8429 372.589C99.8429 372.689 99.7431 372.689 99.7431 372.789L99.3437 373.289L97.7462 375.289L97.6464 375.389L97.5466 375.289L93.6527 369.888H93.8524L89.9585 375.389L89.8587 375.589L89.7588 375.389C88.361 373.689 86.7635 371.889 85.166 369.888H85.4656C85.3657 369.988 85.2659 370.088 85.2659 370.188L81.1723 375.289L81.0725 375.489L80.9726 375.289L77.0787 369.788H77.2784L72.486 375.289L72.3861 375.389L72.2863 375.289C71.6872 374.289 71.188 373.389 70.7886 372.789L70.3893 372.089L70.2894 371.889C70.2894 371.889 70.3893 371.989 70.4891 372.089L70.8885 372.689L72.486 375.189H72.2863L76.9789 369.688L77.0787 369.588L77.1786 369.688L81.0725 375.089H80.7729L84.8665 370.088L85.0662 369.788L85.166 369.588L85.2659 369.788L89.8587 375.289H89.5591L93.453 369.888L93.5528 369.688L93.6527 369.888L97.4467 375.389H97.247L98.9444 373.389L99.3437 372.889C99.7431 372.589 99.8429 372.589 99.8429 372.589Z" fill="#E0E0E0"></path><path d="M100.742 365.387C100.742 365.487 93.8524 365.587 85.4655 365.587C77.0787 365.587 70.1896 365.487 70.1896 365.387C70.1896 365.287 77.0787 365.187 85.4655 365.187C93.8524 365.187 100.742 365.387 100.742 365.387Z" fill="#455A64"></path><path d="M102.039 388.693C102.039 388.793 94.5513 388.893 85.3657 388.893C76.1802 388.893 68.692 388.793 68.692 388.693C68.692 388.593 76.1802 388.492 85.3657 388.492C94.5513 388.492 102.039 388.593 102.039 388.693Z" fill="#263238"></path><path d="M67.1943 240.257V249.859H120.111V392.393H124.904V249.859L345.656 250.96V392.393H350.449V250.66L384.495 250.96V239.457L67.1943 240.257Z" fill="#263238"></path><path d="M101.041 247.959L121.908 263.063L120.111 264.763L99.0443 248.959L101.041 247.959Z" fill="#263238"></path><path d="M370.118 249.359L345.956 266.664L347.753 268.364L372.115 250.36L370.118 249.359Z" fill="#263238"></path><path d="M198.687 236.756H144.073V240.757H198.687V236.756Z" fill="#263238"></path><path d="M211.068 172.241C210.469 172.441 209.77 172.641 209.171 172.641C208.572 172.741 207.873 172.741 207.174 172.741" fill="#263238"></path><path d="M232.834 207.149C232.434 195.146 230.038 179.543 230.238 179.543L232.834 207.149Z" fill="#263238"></path><path d="M181.814 235.756C182.014 235.656 182.313 235.656 182.513 235.556L184.51 235.156L192.198 233.556L219.455 228.054L219.155 228.354C219.155 221.753 219.155 214.551 219.155 206.849L219.555 207.249L210.369 208.95L174.426 215.651L174.026 215.751V215.451C174.326 205.749 174.625 197.647 174.825 191.946C174.925 189.145 175.025 186.945 175.125 185.344C175.125 184.644 175.224 184.044 175.224 183.644C175.224 183.444 175.224 183.244 175.324 183.044C175.324 183.244 175.324 183.444 175.324 183.644C175.324 184.044 175.324 184.644 175.324 185.344C175.324 186.945 175.224 189.145 175.224 191.946C175.125 197.647 174.925 205.749 174.625 215.451L174.226 215.151L210.169 208.35L219.355 206.649L219.754 206.549V206.949C219.754 214.651 219.754 221.853 219.754 228.454V228.754H219.455L192.098 233.956L184.41 235.356L182.313 235.756C182.313 235.756 182.014 235.756 181.814 235.756Z" fill="#263238"></path><path d="M304.022 133.632L303.123 132.732L300.128 124.53C299.629 123.129 298.331 122.229 296.833 122.229H275.067C273.57 122.229 272.272 123.129 271.772 124.53L268.777 132.632L267.479 133.832C266.381 134.732 265.782 136.132 265.782 137.533V149.536C265.782 151.536 267.379 153.036 269.376 153.036H271.573C273.57 153.036 275.167 151.436 275.167 149.536V147.835H296.234V149.536C296.234 151.536 297.831 153.036 299.828 153.036H302.025C304.022 153.036 305.619 151.436 305.619 149.536V137.233C305.519 135.832 305.02 134.532 304.022 133.632ZM273.27 125.03C273.57 124.33 274.268 123.829 274.967 123.829H296.733C297.532 123.829 298.231 124.33 298.43 125.03L301.126 132.231H299.129C298.63 129.031 295.735 126.83 292.54 127.33C290.044 127.73 288.047 129.731 287.647 132.231H270.674L273.27 125.03ZM297.432 132.231H289.345C289.844 130.031 292.041 128.531 294.237 129.031C295.835 129.331 297.133 130.631 297.432 132.231ZM273.37 149.436C273.37 150.436 272.571 151.236 271.473 151.236H269.276C268.278 151.236 267.479 150.436 267.379 149.436V147.235C267.879 147.535 268.577 147.735 269.276 147.735H273.37V149.436ZM303.822 149.436C303.822 150.436 303.023 151.236 301.925 151.236H299.728C298.73 151.236 297.931 150.436 297.831 149.436V147.735H301.925C302.624 147.735 303.223 147.535 303.822 147.235V149.436ZM302.025 146.035H269.376C268.378 146.035 267.579 145.235 267.479 144.234V137.533C267.479 136.633 267.879 135.732 268.577 135.132L269.776 134.032H302.025L302.824 134.932C303.423 135.532 303.822 136.332 303.822 137.233V144.234C303.822 145.235 303.023 146.035 302.025 146.035Z" fill="#E0E0E0"></path><path d="M276.964 137.333H270.574C270.075 137.333 269.676 137.733 269.676 138.233V142.634C269.676 143.134 270.075 143.534 270.574 143.534H276.964C277.464 143.534 277.863 143.134 277.863 142.634V138.233C277.863 137.733 277.464 137.333 276.964 137.333ZM276.166 141.734H271.473V139.033H276.166V141.734Z" fill="#E0E0E0"></path><path d="M300.727 137.333H294.337C293.838 137.333 293.438 137.733 293.438 138.233V142.634C293.438 143.134 293.838 143.534 294.337 143.534H300.727C301.226 143.534 301.625 143.134 301.625 142.634V138.233C301.526 137.733 301.126 137.333 300.727 137.333ZM299.828 141.734H295.136V139.033H299.828V141.734Z" fill="#E0E0E0"></path><path d="M289.744 140.934H281.557C281.058 140.934 280.658 141.334 280.658 141.834C280.658 142.334 281.058 142.734 281.557 142.734H289.744C290.243 142.734 290.643 142.334 290.643 141.834C290.643 141.334 290.243 140.934 289.744 140.934Z" fill="#E0E0E0"></path><path d="M289.744 138.233H281.557C281.058 138.233 280.658 138.633 280.658 139.133C280.658 139.633 281.058 140.033 281.557 140.033H289.744C290.243 140.033 290.643 139.633 290.643 139.133C290.643 138.633 290.243 138.233 289.744 138.233Z" fill="#E0E0E0"></path><path d="M318.199 128.03C318.199 126.83 331.179 126.03 347.254 126.03C363.328 126.03 376.308 127.23 376.308 128.03" fill="#E0E0E0"></path><path d="M318.199 133.832C318.199 132.632 331.179 131.831 347.254 131.831C363.328 131.831 376.308 133.032 376.308 133.832" fill="#E0E0E0"></path><path d="M318.199 138.233C318.199 137.633 331.179 137.233 347.254 137.233C363.328 137.233 376.308 137.833 376.308 138.233" fill="#E0E0E0"></path><path d="M318.199 143.034C318.199 142.534 326.586 142.134 336.97 142.134C347.354 142.134 355.74 142.634 355.74 143.034" fill="#E0E0E0"></path><path d="M280.858 164.639H265.183V180.343H280.858V164.639Z" fill="#E0E0E0"></path><path d="M309.313 164.639H293.638V180.343H309.313V164.639Z" fill="#E0E0E0"></path><path d="M337.669 164.639H321.993V180.343H337.669V164.639Z" fill="#E0E0E0"></path><path d="M366.124 164.639H350.449V180.343H366.124V164.639Z" fill="#E0E0E0"></path><path d="M308.974 39.0093H235.973C231.983 39.0093 228.64 42.363 228.64 46.3658V73.5202C228.64 77.523 231.983 80.8768 235.973 80.8768H241.041L239.1 88.8824C239.1 88.8824 247.726 88.5579 253.765 80.8768H308.974C312.964 80.8768 316.306 77.523 316.306 73.5202V46.3658C316.306 42.2548 312.964 39.0093 308.974 39.0093Z" fill="var(--q-color-secondary)"></path><path opacity="0.1" d="M308.974 39.0093H235.973C231.983 39.0093 228.64 42.363 228.64 46.3658V73.5202C228.64 77.523 231.983 80.8768 235.973 80.8768H241.041L239.1 88.8824C239.1 88.8824 247.726 88.5579 253.765 80.8768H308.974C312.964 80.8768 316.306 77.523 316.306 73.5202V46.3658C316.306 42.2548 312.964 39.0093 308.974 39.0093Z" fill="#F9F9F9"></path><path d="M252.932 57.2012C251.99 57.2012 251.246 57.5156 250.699 58.1445C250.156 58.7695 249.885 59.627 249.885 60.7168C249.885 61.8379 250.146 62.7051 250.67 63.3184C251.197 63.9277 251.947 64.2324 252.92 64.2324C253.518 64.2324 254.199 64.125 254.965 63.9102V64.7832C254.371 65.0059 253.639 65.1172 252.768 65.1172C251.506 65.1172 250.531 64.7344 249.844 63.9688C249.16 63.2031 248.818 62.1152 248.818 60.7051C248.818 59.8223 248.982 59.0488 249.311 58.3848C249.643 57.7207 250.119 57.209 250.74 56.8496C251.365 56.4902 252.1 56.3105 252.943 56.3105C253.842 56.3105 254.627 56.4746 255.299 56.8027L254.877 57.6582C254.229 57.3535 253.58 57.2012 252.932 57.2012ZM262.23 61.7832C262.23 62.8301 261.967 63.6484 261.439 64.2383C260.912 64.8242 260.184 65.1172 259.254 65.1172C258.68 65.1172 258.17 64.9824 257.725 64.7129C257.279 64.4434 256.936 64.0566 256.693 63.5527C256.451 63.0488 256.33 62.459 256.33 61.7832C256.33 60.7363 256.592 59.9219 257.115 59.3398C257.639 58.7539 258.365 58.4609 259.295 58.4609C260.193 58.4609 260.906 58.7598 261.434 59.3574C261.965 59.9551 262.23 60.7637 262.23 61.7832ZM257.338 61.7832C257.338 62.6035 257.502 63.2285 257.83 63.6582C258.158 64.0879 258.641 64.3027 259.277 64.3027C259.914 64.3027 260.396 64.0898 260.725 63.6641C261.057 63.2344 261.223 62.6074 261.223 61.7832C261.223 60.9668 261.057 60.3477 260.725 59.9258C260.396 59.5 259.91 59.2871 259.266 59.2871C258.629 59.2871 258.148 59.4961 257.824 59.9141C257.5 60.332 257.338 60.9551 257.338 61.7832ZM272.127 65V60.8223C272.127 60.3105 272.018 59.9277 271.799 59.6738C271.58 59.416 271.24 59.2871 270.779 59.2871C270.174 59.2871 269.727 59.4609 269.438 59.8086C269.148 60.1562 269.004 60.6914 269.004 61.4141V65H268.031V60.8223C268.031 60.3105 267.922 59.9277 267.703 59.6738C267.484 59.416 267.143 59.2871 266.678 59.2871C266.068 59.2871 265.621 59.4707 265.336 59.8379C265.055 60.2012 264.914 60.7988 264.914 61.6309V65H263.941V58.5781H264.732L264.891 59.457H264.938C265.121 59.1445 265.379 58.9004 265.711 58.7246C266.047 58.5488 266.422 58.4609 266.836 58.4609C267.84 58.4609 268.496 58.8242 268.805 59.5508H268.852C269.043 59.2148 269.32 58.9492 269.684 58.7539C270.047 58.5586 270.461 58.4609 270.926 58.4609C271.652 58.4609 272.195 58.6484 272.555 59.0234C272.918 59.3945 273.1 59.9902 273.1 60.8105V65H272.127ZM278.098 65.1172C277.68 65.1172 277.297 65.041 276.949 64.8887C276.605 64.7324 276.316 64.4941 276.082 64.1738H276.012C276.059 64.5488 276.082 64.9043 276.082 65.2402V67.8828H275.109V58.5781H275.9L276.035 59.457H276.082C276.332 59.1055 276.623 58.8516 276.955 58.6953C277.287 58.5391 277.668 58.4609 278.098 58.4609C278.949 58.4609 279.605 58.752 280.066 59.334C280.531 59.916 280.764 60.7324 280.764 61.7832C280.764 62.8379 280.527 63.6582 280.055 64.2441C279.586 64.8262 278.934 65.1172 278.098 65.1172ZM277.957 59.2871C277.301 59.2871 276.826 59.4688 276.533 59.832C276.24 60.1953 276.09 60.7734 276.082 61.5664V61.7832C276.082 62.6855 276.232 63.332 276.533 63.7227C276.834 64.1094 277.316 64.3027 277.98 64.3027C278.535 64.3027 278.969 64.0781 279.281 63.6289C279.598 63.1797 279.756 62.5605 279.756 61.7715C279.756 60.9707 279.598 60.3574 279.281 59.9316C278.969 59.502 278.527 59.2871 277.957 59.2871ZM285.398 58.4609C285.684 58.4609 285.939 58.4844 286.166 58.5312L286.031 59.4336C285.766 59.375 285.531 59.3457 285.328 59.3457C284.809 59.3457 284.363 59.5566 283.992 59.9785C283.625 60.4004 283.441 60.9258 283.441 61.5547V65H282.469V58.5781H283.271L283.383 59.7676H283.43C283.668 59.3496 283.955 59.0273 284.291 58.8008C284.627 58.5742 284.996 58.4609 285.398 58.4609ZM291.316 65L291.123 64.0859H291.076C290.756 64.4883 290.436 64.7617 290.115 64.9062C289.799 65.0469 289.402 65.1172 288.926 65.1172C288.289 65.1172 287.789 64.9531 287.426 64.625C287.066 64.2969 286.887 63.8301 286.887 63.2246C286.887 61.9277 287.924 61.248 289.998 61.1855L291.088 61.1504V60.752C291.088 60.248 290.979 59.877 290.76 59.6387C290.545 59.3965 290.199 59.2754 289.723 59.2754C289.188 59.2754 288.582 59.4395 287.906 59.7676L287.607 59.0234C287.924 58.8516 288.27 58.7168 288.645 58.6191C289.023 58.5215 289.402 58.4727 289.781 58.4727C290.547 58.4727 291.113 58.6426 291.48 58.9824C291.852 59.3223 292.037 59.8672 292.037 60.6172V65H291.316ZM289.119 64.3145C289.725 64.3145 290.199 64.1484 290.543 63.8164C290.891 63.4844 291.064 63.0195 291.064 62.4219V61.8418L290.092 61.8828C289.318 61.9102 288.76 62.0312 288.416 62.2461C288.076 62.457 287.906 62.7871 287.906 63.2363C287.906 63.5879 288.012 63.8555 288.223 64.0391C288.438 64.2227 288.736 64.3145 289.119 64.3145ZM296.977 58.4609C297.262 58.4609 297.518 58.4844 297.744 58.5312L297.609 59.4336C297.344 59.375 297.109 59.3457 296.906 59.3457C296.387 59.3457 295.941 59.5566 295.57 59.9785C295.203 60.4004 295.02 60.9258 295.02 61.5547V65H294.047V58.5781H294.85L294.961 59.7676H295.008C295.246 59.3496 295.533 59.0273 295.869 58.8008C296.205 58.5742 296.574 58.4609 296.977 58.4609Z" fill="white"></path></g><defs><clipPath id="clip0"><rect width="445" height="420" fill="white"></rect></clipPath></defs></g></g></svg>